<?xml version="1.0" standalone="no"?><svg xmlns="http://www.w3.org/2000/svg" viewBox="0 0 1440 320"><path fill="#f3f4f5" fill-opacity="1" d="M0,128L30,117.3C60,107,120,85,180,90.7C240,96,300,128,360,128C420,128,480,96,540,106.7C600,117,660,171,720,186.7C780,203,840,181,900,154.7C960,128,1020,96,1080,112C1140,128,1200,192,1260,229.3C1320,267,1380,277,1410,282.7L1440,288L1440,320L1410,320C1380,320,1320,320,1260,320C1200,320,1140,320,1080,320C1020,320,960,320,900,320C840,320,780,320,720,320C660,320,600,320,540,320C480,320,420,320,360,320C300,320,240,320,180,320C120,320,60,320,30,320L0,320Z"></path></svg>